<?xml version="1.0" encoding="UTF-8"?>
<svg width="512pt" height="512pt" version="1.1" viewBox="0 0 512 512" xmlns="http://www.w3.org/2000/svg">
 <path d="m246.26 9.7578c-135.84 0-246.26 110.42-246.26 246.24 0 73.02 31.941 138.68 82.559 183.8 0.37891 0.37891 0.80078 0.76172 1.2188 1.1016 43.379 38.16 100.26 61.336 162.5 61.336 30.719 0 61.102-5.7812 89.66-16.941 17.559 10.738 38.199 16.941 60.223 16.941 63.801 0 115.86-52 115.86-115.84 0-27.699-9.8203-53.203-26.121-73.18 4.4609-18.719 6.7383-37.961 6.7383-57.223 0-135.82-110.52-246.24-246.36-246.24zm0 32c118.54 0 214.34 95.699 214.34 214.24 0 10.898-0.82031 21.762-2.4609 32.52-17.961-11.461-39.219-18.121-62-18.121-16.539 0-32.281 3.5195-46.52 9.8203-13.16-10.219-27.941-18.461-43.84-24.441 21.238-17.301 34.84-43.602 34.84-73 0-51.902-42.441-94.363-94.34-94.363-51.902 0-94.238 42.48-94.238 94.363 0 29.398 13.578 55.723 34.82 73.02-56.844 21.48-98.961 72.859-107.24 134.96-29.762-36.781-47.559-83.66-47.559-134.78 0-118.52 95.699-214.24 214.24-214.24zm0 78.66c34.602 0 62.34 27.781 62.34 62.383 0 34.602-27.738 62.238-62.34 62.238-34.602 0-62.238-27.641-62.238-62.238 0-34.598 27.641-62.383 62.238-62.383zm0 156.62c27.461 0 52.859 7.9414 74.156 21.719-24.559 21.301-40.16 52.719-40.16 87.66 0 28.5 10.379 54.66 27.559 74.879-19.941 5.9414-40.68 8.9609-61.559 8.9609-51.777 0-99.199-18.238-136.18-48.68v-8.3398c0-75.699 60.461-136.18 136.18-136.18zm149.86 25.379c23.961 0 45.461 9.9414 60.719 25.941l0.039062 0.039063v-0.019532c0.058594 0.039063 0.12109 0.10156 0.17969 0.14062 14.238 15.039 22.941 35.398 22.941 57.883 0 46.559-37.359 83.84-83.84 83.84-17.738 0-34.141-5.4219-47.66-14.719-0.80078-0.71875-1.6602-1.3398-2.6016-1.8789-0.019532-0.019531-0.058594-0.039062-0.12109-0.058593-20.379-15.262-33.52-39.582-33.52-67.18 0-31.078 16.66-58.102 41.559-72.621 0.76172-0.33984 1.5-0.76172 2.1797-1.2188 0.019531 0 0.039062-0.019531 0.058594-0.019531 11.879-6.4414 25.539-10.121 40.059-10.121zm0 24 0.019531-0.019531c-8.8008 0.039062-15.922 7.1602-15.941 15.941v28h-28c-8.8398 0.039062-15.98 7.2188-15.941 16.059 0.039062 8.7812 7.1406 15.898 15.941 15.941h28v28c0.019531 8.7812 7.1406 15.898 15.941 15.922 8.7812-0.019531 15.898-7.1406 15.922-15.922v-28h28c8.8008-0.039063 15.898-7.1602 15.941-15.941 0.019532-4.2383-1.6602-8.3203-4.6406-11.34-2.9805-3-7.0586-4.6992-11.301-4.7188h-28v-28c-0.019531-8.7812-7.1406-15.898-15.922-15.941z"/>
</svg>
