<?xml version="1.0" encoding="UTF-8"?>
<svg width="512pt" height="512pt" version="1.1" viewBox="0 0 512 512" xmlns="http://www.w3.org/2000/svg">
 <path d="m448.52 343.82h-7.2617v-232.72c0-12.641-10.301-22.941-22.941-22.941h-324.96c-12.641 0-22.941 10.301-22.941 22.941v232.72h-6.9414c-6.7812 0-12.281 5.5195-12.281 12.281v35.602c0 17.738 14.422 32.16 32.16 32.16h345.3c17.738 0 32.16-14.422 32.16-32.16v-35.602c0-6.7812-5.5195-12.281-12.281-12.281zm-361.72-232.72c0-3.6211 2.9414-6.5586 6.5586-6.5586h324.96c3.6211 0 6.5586 2.9414 6.5586 6.5586v232.72h-338.08zm242.18 249.1-3.0781 16.801h-138.94l-3.6406-16.801zm115.42 31.5c0 8.6992-7.0781 15.762-15.762 15.762h-345.28c-8.6992 0-15.762-7.0781-15.762-15.762v-31.5h98.98l5.8008 26.719c0.82031 3.7617 4.1602 6.4609 8 6.4609h152.38c3.9609 0 7.3398-2.8203 8.0586-6.7188l4.8594-26.461h98.758v31.5zm-40.602-208.94-141.46-42.719c-4.3984-1.3203-8.6602-1.3398-13.059 0l-141.46 42.719c-5.6211 1.6992-9.3984 6.7812-9.3984 12.66 0 5.8789 3.7812 10.98 9.3984 12.66l51.082 15.418v49.199c0 2.3789 1.0195 4.6211 2.8203 6.1797 20.32 17.641 53.383 27.762 90.742 27.762 37.059 0 72.359-9.9414 96.82-27.262 2.1797-1.5391 3.4609-4.0195 3.4609-6.6797v-49.199l23.781-7.1797v20.379c-5.6797 1.4219-9.9805 6.2422-10.5 12.34l-3.4414 39.078c-0.33984 3.9609 0.94141 7.7617 3.6211 10.68 2.6797 2.9219 6.3398 4.5391 10.32 4.5391h16.359c3.9805 0 7.6406-1.6211 10.32-4.5391 2.6797-2.9219 3.9805-6.7188 3.6211-10.68l-3.4414-39.078c-0.53906-6.1016-4.8398-10.922-10.5-12.34v-25.34l10.922-3.3008c5.6211-1.6992 9.3984-6.7812 9.3984-12.66s-3.7812-10.961-9.3984-12.66zm-24.68 104.24 3.0195-34.32h5.1406l3.0195 34.32zm-266.56-94.582h0.019532zm141.46-36.699c1.3008-0.37891 2.3008-0.37891 3.5781 0l131.48 39.719-131.48 39.719c-1.3008 0.37891-2.3008 0.37891-3.5781 0l-131.48-39.719zm82.32 112.66c-21.602 13.961-51.883 21.898-83.902 21.898-31.238 0-59.719-7.9609-77.18-21.441v-40.379l74 22.359c2.1992 0.66016 4.3594 1 6.5391 1 2.1797 0 4.3398-0.33984 6.5391-1l74-22.359zm25.82 115.46c0-4.5195 3.6602-8.1992 8.1992-8.1992h6.5c4.5195 0 8.1992 3.6602 8.1992 8.1992 0 4.5195-3.6602 8.1992-8.1992 8.1992h-6.5c-4.5195 0-8.1992-3.6602-8.1992-8.1992zm41.98 0c0-4.5195 3.6602-8.1992 8.1992-8.1992h6.5c4.5195 0 8.1992 3.6602 8.1992 8.1992 0 4.5195-3.6602 8.1992-8.1992 8.1992h-6.5c-4.5195 0-8.1992-3.6602-8.1992-8.1992z"/>
</svg>
