<?xml version="1.0" encoding="UTF-8"?>
<svg width="1200pt" height="1200pt" version="1.1" viewBox="0 0 1200 1200" xmlns="http://www.w3.org/2000/svg">
 <path d="m1088.7 401.95h-7.332v-242.04c0-28.309-23.039-51.348-51.348-51.348l-792.16-0.003906c-28.309 0-51.348 23.039-51.348 51.348v234.71c0 28.309 23.039 51.348 51.348 51.348h7.332v132.02h-7.332c-28.309 0-51.348 23.039-51.348 51.348v410.73c0 28.309 23.039 51.348 51.348 51.348h792.16c28.309 0 51.348-23.039 51.348-51.348v-418.07h7.332c28.309 0 51.348-23.039 51.348-51.348v-117.36c0-28.309-23.039-51.348-51.348-51.348zm-51.336 0h-572.11v-132.02h572.11zm-806.83-242.05c0-4.043 3.3008-7.332 7.332-7.332h792.16c4.043 0 7.332 3.3008 7.332 7.332v66.012h-806.82zm7.332 242.05c-4.043 0-7.332-3.3008-7.332-7.332v-124.69h190.7v132.02h-183.37zm51.348 44.016h190.7v132.02l-190.7 0.003907zm-58.68 183.37c0-4.043 3.3008-7.332 7.332-7.332h183.37v132.02l-190.7 0.003906zm0 168.71h190.7v132.02l-190.7 0.003906zm806.83 242.05c0 4.043-3.3008 7.332-7.332 7.332l-792.17 0.007813c-4.043 0-7.332-3.3008-7.332-7.332v-66.012h806.83v66.012zm0-110.03-572.11 0.003906v-132.02h572.11v132.02zm0-176.04-572.11 0.003906v-132.02h572.11v132.02zm58.68-183.37c0 4.043-3.3008 7.332-7.332 7.332l-564.78 0.003907v-132.02h564.77c4.043 0 7.332 3.3008 7.332 7.332v117.36zm-885.74-58.68-119.14 119.14-31.117-31.113 88.02-88.02-88.02-88.02 31.117-31.117 119.14 119.14z"/>
</svg>
