<?xml version="1.0" encoding="UTF-8"?>
<svg width="1200pt" height="1200pt" version="1.1" viewBox="0 0 1200 1200" xmlns="http://www.w3.org/2000/svg">
 <path d="m275.02 99.984c-41.156 0-75 33.891-75 75 0 41.156 33.844 75 75 75h24.984v225c0 40.266 24.141 76.828 61.125 92.672l75.516 32.344-75.516 32.344c-36.984 15.844-61.125 52.406-61.125 92.672v225h-24.984c-41.156 0-75 33.844-75 75 0 41.109 33.844 75 75 75h650.02c41.109 0 74.953-33.891 74.953-75 0-41.156-33.844-75-75-75h-24.984v-225c0-40.266-24.141-76.828-61.125-92.672l-75.516-32.344 75.516-32.344c36.984-15.844 61.125-52.406 61.125-92.672v-225h24.984c41.156 0 75-33.844 75-75 0-41.109-33.844-75-75-75zm0 50.016h650.02c14.25 0 24.984 10.734 24.984 24.984 0 14.297-10.734 25.031-25.031 25.031h-649.97c-14.297 0-25.031-10.734-25.031-25.031 0-14.25 10.734-24.984 25.031-24.984zm75 99.984h500.02v225c0 20.391-12 38.625-30.75 46.688l-129.1 55.359c-20.109 8.6719-20.109 37.219 0 45.891l129.1 55.359c18.703 8.0625 30.703 26.297 30.703 46.734v225h-499.97v-225c0-20.391 12-38.625 30.75-46.688l129.1-55.359c20.109-8.6719 20.109-37.219 0-45.891l-129.1-55.406c-18.75-8.0156-30.75-26.25-30.75-46.688zm-75 750h650.02c14.297 0 24.984 10.734 24.984 24.984 0 14.297-10.734 24.984-24.984 24.984l-650.02 0.046875c-14.297 0-25.031-10.734-25.031-24.984 0-14.297 10.734-25.031 25.031-25.031z"/>
 <path d="m425.02 350.02c-13.828 0-25.031 11.156-25.031 24.984v75c0 25.078 15.047 47.906 38.109 57.797l136.92 58.688v92.016l-136.92 58.688c-23.062 9.8906-38.109 32.719-38.109 57.797v100.03c0 13.781 11.203 24.984 25.031 24.984h349.97c13.828 0 25.031-11.203 25.031-24.984v-100.03c0-25.078-15.047-47.906-38.109-57.797l-136.92-58.688v-92.016l136.92-58.688c23.062-9.8906 38.109-32.719 38.109-57.797v-75c0-13.828-11.203-24.984-25.031-24.984zm24.984 49.969h300v50.016c0 5.25-3 9.8438-7.8281 11.906l-142.18 60.844-142.18-60.844c-4.8281-2.0625-7.8281-6.6562-7.8281-11.906zm150 302.16 142.18 60.938c4.8281 2.0625 7.8281 6.7031 7.8281 11.906v75h-300v-75c0-5.2031 3-9.8438 7.8281-11.906z"/>
</svg>
