<?xml version="1.0" encoding="UTF-8"?>
<svg width="512pt" height="512pt" version="1.1" viewBox="0 0 512 512" xmlns="http://www.w3.org/2000/svg">
 <path d="m235.52 76.801c-87.48 0-158.72 71.238-158.72 158.72s71.238 158.72 158.72 158.72c38.219 0 73.34-13.602 100.78-36.219l72.68 72.68c6 6 15.719 6 21.719 0s6-15.738 0-21.719l-72.68-72.68c22.621-27.441 36.219-62.562 36.219-100.78 0-87.48-71.238-158.72-158.72-158.72zm0 30.719c70.883 0 128 57.117 128 128 0 70.883-57.117 128-128 128-70.883 0-128-57.117-128-128 0-70.883 57.117-128 128-128z"/>
</svg>
