<?xml version="1.0" encoding="UTF-8"?>
<svg width="1200pt" height="1200pt" version="1.1" viewBox="0 0 1200 1200" xmlns="http://www.w3.org/2000/svg">
 <path d="m600 99.984c-275.86 0-500.02 224.16-500.02 500.02s224.16 500.02 500.02 500.02 500.02-224.16 500.02-500.02-224.16-500.02-500.02-500.02zm0 50.016c248.81 0 450 201.19 450 450s-201.19 450-450 450-450-201.19-450-450 201.19-450 450-450z"/>
 <path d="m600 200.02c-220.64 0-399.98 179.34-399.98 399.98s179.34 399.98 399.98 399.98 399.98-179.34 399.98-399.98-179.34-399.98-399.98-399.98zm-24.984 50.953v49.031c0 6.6094 2.625 12.984 7.3125 17.672s11.062 7.3125 17.672 7.3125 12.984-2.625 17.672-7.3125 7.3125-11.062 7.3125-17.672v-49.031c173.63 12.188 311.86 150.42 324.05 324.05h-49.031c-13.828 0-24.984 11.156-24.984 24.984 0 6.6094 2.625 12.984 7.3125 17.672s11.062 7.3125 17.672 7.3125h49.031c-12.188 173.63-150.42 311.86-324.05 324.05v-49.031c0-6.6094-2.625-12.984-7.3125-17.672s-11.062-7.3125-17.672-7.3125c-13.828 0-24.984 11.156-24.984 24.984v49.031c-173.63-12.188-311.86-150.42-324.05-324.05h49.031c6.6094 0 12.984-2.625 17.672-7.3125s7.3125-11.062 7.3125-17.672-2.625-12.984-7.3125-17.672-11.062-7.3125-17.672-7.3125h-49.031c12.188-173.63 150.42-311.86 324.05-324.05z"/>
 <path d="m512.9 453.14c-7.9688 4.4062-12.891 12.75-12.891 21.844v250.03c0 9.0938 4.9219 17.438 12.891 21.844 7.9219 4.4062 17.672 4.1719 25.359-0.65625l200.02-125.02c7.3125-4.5469 11.719-12.562 11.719-21.188s-4.4062-16.641-11.719-21.188l-200.02-125.02c-7.6875-4.8281-17.438-5.0625-25.359-0.65625zm37.078 66.984 127.82 79.875-127.82 79.875z"/>
</svg>
