<?xml version="1.0" encoding="UTF-8"?>
<svg width="1200pt" height="1200pt" version="1.1" viewBox="0 0 1200 1200" xmlns="http://www.w3.org/2000/svg">
 <path d="m986.58 771.89c7.4531-18.375 28.453-27.281 46.828-19.828s27.281 28.453 19.828 46.828c-39.891 98.438-108.56 182.16-195.47 240.71-84.516 56.906-186.24 90.141-295.64 90.141-26.297-0.09375-51.422-1.9219-77.438-5.625-46.828-8.7656-35.625-76.969 10.734-71.203 22.734 3.2344 43.875 4.5 66.75 4.8281h0.09375c94.594 0 182.48-28.688 255.32-77.766 75.188-50.672 134.58-123.05 169.03-208.13zm-867.14-54.75c-10.453-41.906-76.266-32.203-70.406 14.766 5.2031 24.422 16.031 53.578 25.922 76.641 20.297 43.453 83.766 15.609 66.141-28.406-8.8125-20.578-15.891-41.344-21.703-63zm137.63 224.21c-12.281-11.25-32.25-12-45.281-1.9688-18.656 13.969-19.312 40.359-2.4375 55.875 19.453 17.297 39.422 32.578 61.031 47.062 38.672 24.891 78.141-30.609 41.25-58.969-19.594-13.688-36.703-26.016-54.609-42zm269.06-666.28c0-19.875 16.125-36 36-36s36 16.125 36 36v324.89c0 14.203-8.25 26.484-20.156 32.344l-206.02 118.92c-17.156 9.9375-39.141 4.0781-49.078-13.078s-4.0781-39.141 13.078-49.078l190.18-109.78zm401.34 249.14c-14.109-13.875-14.297-36.656-0.42188-50.766 13.875-14.109 36.656-14.297 50.766-0.42187l32.109 31.547c-18.703-88.125-62.719-166.87-124.13-228.28-82.828-82.828-197.29-134.06-323.68-134.06-126.42 0-240.89 51.234-323.72 134.06-82.828 82.828-134.06 197.29-134.06 323.68 0 19.875-16.125 36-36 36s-36-16.125-36-36c0-146.29 59.297-278.76 155.16-374.58 95.859-95.859 228.32-155.16 374.63-155.16 146.3 0 278.76 59.297 374.58 155.16 71.391 71.391 122.48 163.03 143.95 265.6l20.344-33.141c10.406-16.922 32.578-22.219 49.5-11.812 16.922 10.406 22.219 32.578 11.812 49.5l-75.234 122.34-0.42187 0.75-0.14063 0.1875c-6.3281 10.266-17.719 17.156-30.656 17.156-10.734 0-20.391-4.7344-27-12.188l-101.44-99.562z"/>
</svg>
