<?xml version="1.0" encoding="UTF-8"?>
<svg width="1200pt" height="1200pt" version="1.1" viewBox="0 0 1200 1200" xmlns="http://www.w3.org/2000/svg">
 <path d="m736.8 402c0 75.551-61.25 136.8-136.8 136.8s-136.8-61.25-136.8-136.8 61.25-136.8 136.8-136.8 136.8 61.25 136.8 136.8z"/>
 <path d="m1009.2 433.2c0 56.332-45.668 102-102 102s-102-45.668-102-102 45.668-102 102-102 102 45.668 102 102z"/>
 <path d="m1110 776.4c-20.398-128.4-87.602-205.2-202.8-205.2-44.398 0-80.398 10.801-110.4 32.398 3.6016 3.6016 7.1992 7.1992 12 10.801 49.199 51.602 82.801 126 98.398 220.8 0 3.6016 1.1992 7.1992 1.1992 9.6016 111.6 1.1992 210-18 201.6-68.402z"/>
 <path d="m394.8 433.2c0 56.332-45.668 102-102 102s-102-45.668-102-102 45.668-102 102-102 102 45.668 102 102z"/>
 <path d="m392.4 614.4c3.6016-3.6016 7.1992-7.1992 10.801-10.801-30-21.602-67.199-32.398-110.4-32.398-114 0-181.2 75.602-202.8 205.2-8.3984 50.398 91.199 69.602 202.8 69.602 0-3.6016 0-7.1992 1.1992-9.6016 14.398-94.797 48-169.2 98.398-222z"/>
 <path d="m600 934.8c-150 0-282-26.398-271.2-92.398 28.801-172.8 118.8-273.6 271.2-273.6s242.4 102 271.2 273.6c10.801 65.996-121.2 92.398-271.2 92.398z"/>
</svg>
