<svg width="288" height="260" xmlns="http://www.w3.org/2000/svg" xmlns:xlink="http://www.w3.org/1999/xlink" xml:space="preserve" overflow="hidden"><defs><clipPath id="clip0"><rect x="1437" y="549" width="288" height="260"/></clipPath><linearGradient x1="1457.95" y1="657.034" x2="1702.05" y2="797.966" gradientUnits="userSpaceOnUse" spreadMethod="reflect" id="fill1"><stop offset="0" stop-color="#51247A"/><stop offset="0.22" stop-color="#51247A"/><stop offset="0.5" stop-color="#1F0029"/><stop offset="1" stop-color="#51247A"/></linearGradient><linearGradient x1="-0.832993" y1="2.28863" x2="266.833" y2="99.7111" gradientUnits="userSpaceOnUse" spreadMethod="reflect" id="fill2"><stop offset="0" stop-color="#51247A"/><stop offset="0.22" stop-color="#51247A"/><stop offset="0.48" stop-color="#962A8B"/><stop offset="0.66" stop-color="#962A8B"/><stop offset="1" stop-color="#51247A"/></linearGradient><radialGradient cx="0.03125" cy="0.03125" r="633236" fx="0" fy="0" gradientUnits="userSpaceOnUse" spreadMethod="pad" id="fill3" gradientTransform="matrix(0.000360892 0 0 0.000360892 1443 574)"><stop offset="0" stop-color="#51247A"/><stop offset="0.35" stop-color="#51247A"/><stop offset="0.51" stop-color="#962A8B"/><stop offset="0.63" stop-color="#51247A"/><stop offset="0.84" stop-color="#11081A"/><stop offset="1" stop-color="#51247A" stop-opacity="0.509804"/></radialGradient><linearGradient x1="1581" y1="809" x2="1581" y2="549" gradientUnits="userSpaceOnUse" spreadMethod="reflect" id="fill4"><stop offset="0" stop-color="#D7D1CC"/><stop offset="0.35" stop-color="#F2F0EE"/><stop offset="0.9" stop-color="#F2F0EE"/><stop offset="1" stop-color="#F2F0EE"/></linearGradient></defs><g clip-path="url(#clip0)" transform="translate(-1437 -549)"><path d="M1447 693.167C1447 683.686 1454.69 676 1464.17 676L1695.83 676C1705.31 676 1713 683.686 1713 693.167L1713 761.833C1713 771.314 1705.31 779 1695.83 779L1464.17 779C1454.69 779 1447 771.314 1447 761.833Z" fill="url(#fill1)" fill-rule="evenodd"/><path d="M0 17.0003C0 7.61129 7.61128-2.11659e-15 17.0003-4.23318e-15L249 0C258.389-4.23318e-15 266 7.61129 266 17.0003L266 84.9994C266 94.3884 258.389 102 249 102L17.0003 102C7.61128 102-2.11658e-15 94.3884-2.11658e-15 84.9994Z" fill="url(#fill2)" fill-rule="evenodd" transform="matrix(1 0 0 -1 1447 679)"/><path d="M1443 590.834C1443 581.537 1450.54 574 1459.83 574L1527.17 574C1536.46 574 1544 581.537 1544 590.834L1544 762.166C1544 771.463 1536.46 779 1527.17 779L1459.83 779C1450.54 779 1443 771.463 1443 762.166Z" fill="url(#fill3)" fill-rule="evenodd"/><path d="M1577.24 683.579 1577.24 690.732 1590.36 690.732C1591.72 690.732 1592.61 690.937 1593.04 691.346 1593.48 691.756 1593.69 692.531 1593.69 693.672L1593.69 714.349C1593.69 718.531 1594.32 721.612 1595.58 723.592 1596.53 725.077 1597.71 726.187 1599.14 726.922L1599.68 727.142 1599.13 727.365C1597.69 728.101 1596.5 729.206 1595.57 730.678 1594.32 732.641 1593.69 735.691 1593.69 739.828L1593.69 760.505C1593.69 761.704 1593.47 762.51 1593.04 762.923 1592.6 763.336 1591.71 763.543 1590.36 763.543L1577.24 763.543 1577.24 770.697 1590.36 770.697C1593.65 770.697 1596.15 770.312 1597.87 769.544 1599.59 768.775 1600.74 767.544 1601.33 765.851 1601.92 764.158 1602.21 762.082 1602.21 759.623L1602.21 738.946C1602.21 735.799 1602.73 733.671 1603.75 732.561 1604.78 731.452 1607.34 730.825 1611.42 730.681L1611.42 723.608C1607.36 723.465 1604.81 722.834 1603.77 721.714 1602.73 720.593 1602.21 718.432 1602.21 715.231L1602.21 694.554C1602.21 692.126 1601.92 690.076 1601.34 688.406 1600.76 686.736 1599.61 685.514 1597.87 684.74 1596.14 683.966 1593.64 683.579 1590.36 683.579ZM1562.03 683.579C1558.82 683.579 1556.33 683.966 1554.56 684.742 1552.79 685.517 1551.61 686.732 1551.04 688.387 1550.46 690.041 1550.17 692.097 1550.17 694.554L1550.17 715.231C1550.17 718.421 1549.65 720.579 1548.61 721.704 1547.57 722.83 1545.02 723.464 1540.97 723.607L1540.97 730.682C1545.04 730.825 1547.59 731.454 1548.63 732.57 1549.66 733.685 1550.17 735.81 1550.17 738.946L1550.17 759.623C1550.17 762.113 1550.47 764.196 1551.05 765.873 1551.63 767.549 1552.8 768.773 1554.56 769.542 1556.32 770.312 1558.81 770.697 1562.03 770.697L1575.15 770.697 1575.15 763.543 1562.03 763.543C1560.67 763.543 1559.77 763.339 1559.34 762.93 1558.91 762.521 1558.7 761.713 1558.7 760.505L1558.7 739.828C1558.7 735.706 1558.07 732.66 1556.82 730.689 1555.88 729.211 1554.69 728.105 1553.26 727.369L1552.69 727.142 1553.24 726.919C1554.66 726.184 1555.85 725.071 1556.8 723.58 1558.06 721.592 1558.7 718.515 1558.7 714.349L1558.7 693.672C1558.7 692.522 1558.91 691.744 1559.34 691.339 1559.76 690.935 1560.66 690.732 1562.03 690.732L1575.15 690.732 1575.15 683.579ZM1624.06 683.135 1624.06 769.838 1642.49 769.838 1642.49 711.171 1643 711.171 1668.82 769.838 1692.83 769.838 1692.83 683.135 1674.4 683.135 1674.4 741.802 1673.88 741.802 1647.93 683.135ZM1496.26 681.577C1490.04 681.577 1484.26 682.659 1478.94 684.822 1473.62 686.985 1469.32 690.057 1466.03 694.037 1462.75 698.018 1461.1 702.734 1461.1 708.185 1461.1 713.031 1462.16 717.184 1464.28 720.646 1466.4 724.107 1469.45 726.919 1473.43 729.082 1477.41 731.246 1482.12 732.846 1487.57 733.885L1494.32 735.183C1499.16 736.048 1502.75 737.216 1505.09 738.687 1507.42 740.158 1508.59 742.235 1508.59 744.917 1508.59 746.908 1507.92 748.573 1506.58 749.914 1505.24 751.256 1503.62 752.229 1501.71 752.835 1499.81 753.441 1497.91 753.743 1496 753.743 1493.32 753.743 1490.81 753.246 1488.48 752.251 1486.14 751.256 1484.15 749.871 1482.51 748.097 1480.87 746.323 1479.74 744.268 1479.14 741.932L1459.03 749.201C1460.84 753.787 1463.48 757.745 1466.94 761.077 1470.4 764.408 1474.55 766.961 1479.4 768.735 1484.24 770.509 1489.65 771.396 1495.61 771.396 1501.84 771.396 1507.62 770.184 1512.94 767.761 1518.25 765.339 1522.54 761.942 1525.78 757.572 1529.02 753.203 1530.65 748.032 1530.65 742.062 1530.65 736.783 1529.37 732.5 1526.82 729.212 1524.27 725.924 1520.74 723.285 1516.24 721.295 1511.75 719.304 1506.56 717.747 1500.67 716.622L1492.24 714.935C1489.21 714.329 1486.94 713.355 1485.43 712.014 1483.92 710.673 1483.16 709.051 1483.16 707.147 1483.16 705.503 1483.66 704.097 1484.65 702.929 1485.65 701.76 1487.01 700.852 1488.74 700.203 1490.47 699.554 1492.41 699.229 1494.58 699.229 1496.83 699.229 1498.88 699.575 1500.74 700.268 1502.6 700.96 1504.24 701.977 1505.67 703.318 1507.1 704.659 1508.16 706.282 1508.85 708.185L1528.7 700.917C1526.88 696.331 1524.24 692.61 1520.78 689.754 1517.33 686.899 1513.45 684.822 1509.17 683.524 1504.89 682.226 1500.59 681.577 1496.26 681.577ZM1593.05 642.616 1593.05 649.236C1593.05 653.791 1592.17 657.439 1590.39 660.18 1588.62 662.921 1586.22 664.898 1583.19 666.109 1580.17 667.321 1576.75 667.926 1572.94 667.926 1568.4 667.926 1564.93 667.016 1562.53 665.195 1560.13 663.373 1558.93 660.996 1558.93 658.062 1558.93 653.353 1561.79 649.793 1567.5 647.384 1573.22 644.975 1581.73 643.385 1593.05 642.616ZM1665.19 607.701C1658.09 607.701 1651.99 609.283 1646.89 612.448 1641.78 615.612 1637.91 619.873 1635.28 625.231 1632.64 630.588 1631.33 636.513 1631.33 643.006 1631.33 649.636 1632.7 655.539 1635.44 660.714 1638.19 665.888 1642.06 669.985 1647.06 673.004 1652.05 676.022 1657.88 677.531 1664.54 677.531 1669.28 677.531 1673.52 676.831 1677.27 675.43 1681.02 674.029 1684.17 672.206 1686.74 669.958 1689.3 667.711 1691.33 664.933 1692.83 661.623L1682.85 657.932C1681.05 661.096 1678.57 663.466 1675.42 665.042 1672.27 666.619 1668.69 667.407 1664.67 667.407 1660.9 667.407 1657.39 666.557 1654.16 664.858 1650.92 663.158 1648.25 660.496 1646.15 656.87 1644.05 653.245 1643 648.537 1643 642.746 1643 636.908 1644.04 632.172 1646.13 628.539 1648.21 624.907 1650.94 622.213 1654.33 620.458 1657.71 618.703 1661.29 617.825 1665.06 617.825 1668.97 617.825 1672.4 618.614 1675.35 620.191 1678.3 621.768 1680.67 624.268 1682.44 627.69L1692.31 624.104C1689.7 618.716 1686.07 614.635 1681.44 611.862 1676.81 609.088 1671.39 607.701 1665.19 607.701ZM1577.87 607.701C1571.49 607.701 1565.92 609.117 1561.17 611.95 1556.42 614.782 1553.08 619.289 1551.15 625.471L1562.08 628.209C1563 624.652 1564.74 621.945 1567.3 620.09 1569.87 618.234 1573.35 617.306 1577.74 617.306 1583.21 617.306 1587.13 618.707 1589.5 621.51 1591.87 624.313 1593.05 628.233 1593.05 633.271L1593.05 633.506C1578.33 634.589 1567.01 636.972 1559.11 640.656 1551.2 644.34 1547.25 650.315 1547.25 658.581 1547.25 664.75 1549.54 669.451 1554.11 672.683 1558.68 675.915 1564.48 677.531 1571.52 677.531 1578.53 677.531 1584.01 676.282 1587.96 673.784 1591.91 671.286 1594.19 668.642 1594.8 665.85L1596.68 675.974 1606.68 675.974C1606.06 672.235 1605.51 668.388 1605.04 664.431 1604.57 660.474 1604.34 655.539 1604.34 649.625L1604.34 633.92C1604.34 625.429 1602.16 618.937 1597.81 614.442 1593.45 609.948 1586.81 607.701 1577.87 607.701ZM1508.59 586.804 1508.59 645.601C1508.59 649.199 1508.16 652.134 1507.31 654.406 1506.46 656.678 1505.28 658.464 1503.79 659.764 1502.29 661.064 1500.6 661.971 1498.7 662.484 1496.81 662.997 1494.78 663.254 1492.63 663.254 1489.45 663.254 1486.63 662.66 1484.17 661.472 1481.72 660.284 1479.74 658.413 1478.24 655.857 1476.74 653.302 1475.89 649.667 1475.67 644.953L1459.55 650.023C1460.18 656.31 1461.88 661.429 1464.65 665.381 1467.41 669.333 1471.14 672.346 1475.83 674.42 1480.52 676.494 1486.07 677.531 1492.5 677.531 1503.06 677.531 1511.26 674.748 1517.09 669.183 1522.93 663.617 1525.84 655.757 1525.84 645.601L1525.84 586.804ZM1480.32 549 1681.68 549C1705.61 549 1725 568.401 1725 592.334L1725 765.666C1725 789.598 1705.61 809 1681.68 809L1480.32 809C1456.39 809 1437 789.598 1437 765.666L1437 592.334C1437 568.401 1456.39 549 1480.32 549Z" fill="url(#fill4)" fill-rule="evenodd"/></g></svg>
